<?xml version="1.0" encoding="UTF-8" standalone="no"?>
<svg
   height="48"
   width="48"
   version="1.1"
   id="svg1"
   sodipodi:docname="folder_lock.svg"
   inkscape:version="1.3 (0e150ed6c4, 2023-07-21)"
   xmlns:inkscape="http://www.inkscape.org/namespaces/inkscape"
   xmlns:sodipodi="http://sodipodi.sourceforge.net/DTD/sodipodi-0.dtd"
   xmlns="http://www.w3.org/2000/svg"
   xmlns:svg="http://www.w3.org/2000/svg">
  <defs
     id="defs1" />
  <sodipodi:namedview
     id="namedview1"
     pagecolor="#ffffff"
     bordercolor="#000000"
     borderopacity="0.25"
     inkscape:showpageshadow="2"
     inkscape:pageopacity="0.0"
     inkscape:pagecheckerboard="0"
     inkscape:deskcolor="#d1d1d1"
     inkscape:zoom="8.09375"
     inkscape:cx="24.092664"
     inkscape:cy="24.15444"
     inkscape:window-width="1920"
     inkscape:window-height="991"
     inkscape:window-x="-9"
     inkscape:window-y="-9"
     inkscape:window-maximized="1"
     inkscape:current-layer="svg1" />
  <path
     d="m 26.234556,45.683397 q -0.5217,0 -0.912974,-0.376429 -0.391273,-0.376429 -0.391273,-0.84442 V 33.881852 q 0,-0.467991 0.391273,-0.84442 0.391274,-0.376429 0.912974,-0.376429 h 6.086486 l 1.304247,1.220849 h 7.390734 q 0.499962,0 0.902104,0.376429 0.402143,0.376429 0.402143,0.844421 v 9.359846 q 0,0.467991 -0.402143,0.84442 -0.402142,0.376429 -0.902104,0.376429 z m 0,-11.801545 v 10.580696 h 14.781467 v -9.359846 h -7.93417 l -1.304247,-1.22085 z m 0,0 v 10.580696 z"
     id="path1"
     style="stroke-width:0.42062;fill:#000000;fill-opacity:1" />
  <path
     d="m 11.941809,41.799228 q -1.158186,0 -1.968917,-0.81073 -0.81073,-0.810731 -0.81073,-1.968917 V 18.913468 q 0,-1.158185 0.81073,-1.968916 0.810731,-0.810731 1.968917,-0.810731 h 3.242921 v -4.447436 q 0,-3.6598678 2.571174,-6.2310414 2.571174,-2.5711735 6.231042,-2.5711735 3.659868,0 6.231042,2.5711735 2.571173,2.5711736 2.571173,6.2310414 v 4.447436 h 3.242922 q 1.158186,0 1.968917,0.810731 0.81073,0.810731 0.81073,1.968916 v 20.106113 q 0,1.158186 -0.81073,1.968917 -0.810731,0.81073 -1.968917,0.81073 z m 0,-2.779647 H 36.032083 V 18.913468 H 11.941809 Z m 12.045137,-6.485843 q 1.482479,0 2.524846,-1.019205 1.042367,-1.019203 1.042367,-2.455353 0,-1.389823 -1.042367,-2.524846 -1.042367,-1.135022 -2.524846,-1.135022 -1.482479,0 -2.524847,1.135022 -1.042366,1.135023 -1.042366,2.524846 0,1.43615 1.042366,2.455353 1.042368,1.019205 2.524847,1.019205 z M 17.964378,16.133821 h 12.045136 v -4.447436 q 0,-2.501682 -1.760443,-4.2621251 -1.760443,-1.760443 -4.262125,-1.760443 -2.501682,0 -4.262125,1.760443 -1.760443,1.7604431 -1.760443,4.2621251 z m -6.022569,22.88576 V 18.913468 Z"
     id="path1-6"
     style="stroke-width:0.926548" />
  <rect
     style="fill:#ffffff;fill-opacity:1;stroke-width:1.04119"
     id="rect1"
     width="14.180444"
     height="8.7291613"
     x="26.235445"
     y="35.095013" />
</svg>
