<?xml version="1.0" encoding="UTF-8" standalone="no"?>
<svg
   height="48"
   width="48"
   version="1.1"
   id="svg1"
   sodipodi:docname="folder_lock_open.svg"
   inkscape:version="1.3 (0e150ed6c4, 2023-07-21)"
   xmlns:inkscape="http://www.inkscape.org/namespaces/inkscape"
   xmlns:sodipodi="http://sodipodi.sourceforge.net/DTD/sodipodi-0.dtd"
   xmlns="http://www.w3.org/2000/svg"
   xmlns:svg="http://www.w3.org/2000/svg">
  <defs
     id="defs1" />
  <sodipodi:namedview
     id="namedview1"
     pagecolor="#ffffff"
     bordercolor="#000000"
     borderopacity="0.25"
     inkscape:showpageshadow="2"
     inkscape:pageopacity="0.0"
     inkscape:pagecheckerboard="0"
     inkscape:deskcolor="#d1d1d1"
     inkscape:zoom="5.6568543"
     inkscape:cx="47.552931"
     inkscape:cy="17.235728"
     inkscape:window-width="1920"
     inkscape:window-height="991"
     inkscape:window-x="1911"
     inkscape:window-y="-9"
     inkscape:window-maximized="1"
     inkscape:current-layer="svg1" />
  <path
     d="m 12.477192,16.463788 h 18.54679 v -4.565363 q 0,-2.5680189 -1.807123,-4.3751401 -1.807124,-1.8071212 -4.37514,-1.8071212 -2.568015,0 -4.375141,1.8071212 -1.807123,1.8071212 -1.807123,4.3751401 h -2.853351 q 0,-3.7569139 2.639351,-6.3962628 2.639349,-2.6393529 6.396264,-2.6393529 3.756913,0 6.396265,2.6393529 2.639353,2.6393489 2.639353,6.3962628 v 4.565363 h 3.328909 q 1.188898,0 2.021125,0.832228 0.832228,0.832228 0.832228,2.021128 v 20.639247 q 0,1.188898 -0.832228,2.021124 -0.832227,0.832228 -2.021125,0.832228 H 12.477192 q -1.188897,0 -2.021124,-0.832228 Q 9.6238397,41.145289 9.6238397,39.956391 V 19.317144 q 0,-1.1889 0.8322283,-2.021128 0.832227,-0.832228 2.021124,-0.832228 z m 0,23.492603 H 37.206246 V 19.317144 H 12.477192 Z m 12.364527,-6.657824 q 1.521788,0 2.591797,-1.046227 1.070004,-1.046231 1.070004,-2.520462 0,-1.426676 -1.070004,-2.591796 -1.070009,-1.165118 -2.591797,-1.165118 -1.521788,0 -2.591793,1.165118 -1.070008,1.16512 -1.070008,2.591796 0,1.474231 1.070008,2.520462 1.070005,1.046227 2.591793,1.046227 z M 12.477192,39.956391 V 19.317144 Z"
     id="path1-7"
     style="stroke-width:0.951117" />
  <path
     d="m 27.313536,46.328169 q -0.5217,0 -0.912974,-0.376429 -0.391273,-0.376429 -0.391273,-0.84442 V 34.526624 q 0,-0.467991 0.391273,-0.84442 0.391274,-0.376429 0.912974,-0.376429 h 6.086486 l 1.304247,1.220849 h 7.390734 q 0.499962,0 0.902104,0.376429 0.402143,0.376429 0.402143,0.844421 v 9.359846 q 0,0.467991 -0.402143,0.84442 -0.402142,0.376429 -0.902104,0.376429 z m 0,-11.801545 V 45.10732 h 14.781467 v -9.359846 h -7.93417 l -1.304247,-1.22085 z m 0,0 V 45.10732 Z"
     id="path1"
     style="fill:#000000;fill-opacity:1;stroke-width:0.42062" />
  <rect
     style="fill:#ffffff;fill-opacity:1;stroke-width:1.04119"
     id="rect1"
     width="14.180444"
     height="8.7291613"
     x="27.314426"
     y="35.739784" />
</svg>
