<?xml version="1.0" encoding="UTF-8" standalone="no"?>
<!-- Uploaded to: SVG Repo, www.svgrepo.com, Generator: SVG Repo Mixer Tools -->

<svg
   height="800px"
   width="800px"
   version="1.1"
   id="Layer_1"
   viewBox="0 0 512.001 512.001"
   xml:space="preserve"
   sodipodi:docname="galery.svg"
   inkscape:version="1.3 (0e150ed6c4, 2023-07-21)"
   xmlns:inkscape="http://www.inkscape.org/namespaces/inkscape"
   xmlns:sodipodi="http://sodipodi.sourceforge.net/DTD/sodipodi-0.dtd"
   xmlns="http://www.w3.org/2000/svg"
   xmlns:svg="http://www.w3.org/2000/svg"><defs
   id="defs10" /><sodipodi:namedview
   id="namedview10"
   pagecolor="#ffffff"
   bordercolor="#000000"
   borderopacity="0.25"
   inkscape:showpageshadow="2"
   inkscape:pageopacity="0.0"
   inkscape:pagecheckerboard="0"
   inkscape:deskcolor="#d1d1d1"
   inkscape:zoom="0.68677746"
   inkscape:cx="200.93845"
   inkscape:cy="404.06102"
   inkscape:window-width="1920"
   inkscape:window-height="991"
   inkscape:window-x="-9"
   inkscape:window-y="-9"
   inkscape:window-maximized="1"
   inkscape:current-layer="Layer_1" />&#10;&#10;&#10;&#10;&#10;&#10;&#10;&#10;&#10;&#10;&#10;<g
   id="g11"
   transform="translate(0,-25.161038)"><path
     style="fill:#b4bbcc"
     d="M 470.632,37.377 H 41.368 C 18.521,37.377 0,55.898 0,78.744 v 354.511 c 0,22.846 18.521,41.368 41.368,41.368 h 429.265 c 22.846,0 41.368,-18.521 41.368,-41.368 V 78.744 C 512,55.898 493.479,37.377 470.632,37.377 Z"
     id="path1" /><path
     style="fill:#a6e7ff"
     d="M 473.083,233.282 V 102.615 c 0,-14.537 -11.784,-26.321 -26.321,-26.321 H 65.238 c -14.537,0 -26.321,11.784 -26.321,26.321 v 240.014 l 50.002,45.511 z"
     id="path2" /><path
     style="fill:#ffffff"
     d="m 38.909,158.803 c 9.339,-7.358 21.125,-11.747 33.937,-11.747 24.26,0 44.829,15.746 52.081,37.571 8.774,-5.142 18.98,-8.101 29.884,-8.101 30.261,0 55.202,22.707 58.757,52.009 25.772,2.769 46.005,24.044 47.129,50.275 L 196.72,341.349 38.919,342.63 Z"
     id="path3" /><path
     style="fill:#6c994e"
     d="m 157.978,310.558 c 0,0 -68.733,-25.906 -119.062,32.07 v 66.756 c 0,14.537 11.784,26.321 26.321,26.321 l 104.657,-79.174 z"
     id="path4" /><path
     style="opacity:0.1;enable-background:new"
     d="m 38.917,377.353 c 50.329,-57.976 119.062,-32.07 119.062,-32.07 l 4.391,16.942 7.525,-5.692 -11.916,-45.974 c 0,0 -68.733,-25.906 -119.062,32.07 l 0,34.724 z"
     id="path5" /><path
     style="fill:#7eb35b"
     d="M 65.238,435.706 C 100.163,342.996 209.67,233.633 300.801,295.377 l -30.288,97.379 -77.076,42.951 H 65.238 Z"
     id="path6" /><path
     style="opacity:0.1;enable-background:new"
     d="m 297.67,305.443 3.131,-10.067 C 209.669,233.633 100.163,342.995 65.238,435.705 H 98.496 C 136.835,358.195 220.491,279.891 297.67,305.443 Z"
     id="path7" /><path
     style="fill:#a5eb78"
     d="M 473.083,409.385 V 233.282 C 297.793,215.854 193.436,435.706 193.436,435.706 h 253.326 c 14.537,0 26.321,-11.784 26.321,-26.321 z"
     id="path8" /><path
     style="opacity:0.1;enable-background:new"
     d="M 473.083,255.484 V 233.281 C 297.793,215.853 193.436,435.705 193.436,435.705 h 35.651 c 30.729,-52.847 116.82,-178.01 243.996,-180.221 z"
     id="path9" /><circle
     style="fill:#ffe97a"
     cx="343.505"
     cy="173.957"
     r="37.154999"
     id="circle9" /><path
     style="opacity:0.1;enable-background:new"
     d="m 317.935,185.533 c 0,-20.517 16.633,-37.15 37.15,-37.15 7.294,0 14.092,2.111 19.832,5.743 -6.584,-10.405 -18.184,-17.318 -31.407,-17.318 -20.517,0 -37.15,16.633 -37.15,37.15 0,13.223 6.914,24.823 17.318,31.407 -3.632,-5.739 -5.743,-12.537 -5.743,-19.832 z"
     id="path10" /></g>&#10;<g
   id="g12"
   transform="translate(0,-1.8637806)"><path
     opacity="0.5"
     d="m 123.79303,433.09794 c 0,-34.56474 0,-51.84712 11.28639,-62.58536 11.28638,-10.73825 29.45149,-10.73825 65.78184,-10.73825 h 102.75763 c 36.32996,0 54.49494,0 65.78158,10.73825 11.28664,10.73824 11.28664,28.02062 11.28664,62.58536 0,34.56475 0,51.84713 -11.28664,62.58536 -11.28664,10.73825 -29.45162,10.73825 -65.78158,10.73825 H 200.86126 c -36.33035,0 -54.49546,0 -65.78184,-10.73825 -11.28639,-10.73823 -11.28639,-28.02061 -11.28639,-62.58536 z"
     fill="#1c274c"
     id="path1-9"
     style="opacity:1;fill:#617ec8;fill-opacity:1;stroke-width:12.5287" /><path
     d="m 252.24007,457.53914 c 14.18826,0 25.68941,-10.94232 25.68941,-24.4412 0,-13.49887 -11.50115,-24.4412 -25.68941,-24.4412 -14.18826,0 -25.6894,10.94233 -25.6894,24.4412 0,13.49888 11.50114,24.4412 25.6894,24.4412 z"
     fill="#1c274c"
     id="path2-0"
     style="stroke-width:12.5287" /><path
     d="m 184.80538,335.33313 c 0,-35.43351 30.1916,-64.15816 67.43469,-64.15816 37.24322,0 67.4347,28.72465 67.4347,64.15816 v 24.4852 c 7.28808,0.0648 13.66034,0.22486 19.26705,0.62325 v -25.10845 c 0,-45.55743 -38.81797,-82.48905 -86.70175,-82.48905 -47.88402,0 -86.70175,36.93162 -86.70175,82.48905 v 25.10845 c 5.60684,-0.39839 11.97949,-0.55848 19.26706,-0.62325 z"
     fill="#1c274c"
     id="path3-0"
     style="stroke-width:12.5287" /></g></svg>
